<?xml version="1.0" encoding="utf-8"?>
<!-- Generator: Adobe Illustrator 16.0.0, SVG Export Plug-In . SVG Version: 6.00 Build 0)  -->
<!DOCTYPE svg PUBLIC "-//W3C//DTD SVG 1.1//EN" "http://www.w3.org/Graphics/SVG/1.1/DTD/svg11.dtd">
<svg version="1.1" id="Layer_1" xmlns="http://www.w3.org/2000/svg" xmlns:xlink="http://www.w3.org/1999/xlink" x="0px" y="0px"
	 width="512px" height="512px" viewBox="0 0 512 512" enable-background="new 0 0 512 512" xml:space="preserve">
<path fill="#3C3C3C" d="M255.792,51.417c-113.563,0-205.625,92.062-205.625,205.626c0,113.562,92.062,205.625,205.625,205.625
	c113.564,0,205.626-92.062,205.626-205.625C461.418,143.479,369.356,51.417,255.792,51.417z M192.107,299.273
	c-2.938,5.771-4.655,9.115-7.299,15.028c-1.117,2.499-4.949,2.31-4.949,2.31l-76.427-47.105c0,0-10.473-6.05-10.872-14.81
	c-0.399-8.761,12.111-15.944,12.111-15.944l73.346-45.077c0,0,3.658-2.539,5.226,0.597l8.095,16.474
	c2.505,3.233-1.196,4.642-1.196,4.642l-61.381,38.4l-2.888,1.725l2.782,1.603c0,0,41.417,24.712,62.174,36.979
	C193.152,295.468,193.273,296.984,192.107,299.273z M297.035,178.184c-24.521,61.44-69.79,175.061-69.79,175.061
	s-4.143,12.065-7.5,10.743s-16.942-5.469-17.789-10.184c-1.591-8.127,52.36-128.968,73.54-186.885
	c1.764-4.442,3.195-6.254,7.766-2.862c3.803,2.823,8.227,4.803,12.348,7.204c1.252,0.729,2.961,1.135,2.771,3.395
	C297.984,175.692,297.529,176.947,297.035,178.184z M405.902,269.506l-80.55,47.105c0,0-4.037,0.189-5.217-2.31
	c-2.785-5.913-4.594-9.258-7.69-15.028c-1.229-2.289-1.101-3.807,1.346-5.181c21.879-12.267,65.528-36.979,65.528-36.979
	l2.933-1.604l-3.045-1.725l-64.69-38.4c0,0-3.899-1.408-1.262-4.642l8.534-16.474c1.651-3.136,5.506-0.597,5.506-0.597
	l77.301,45.077c0,0,13.185,7.184,12.765,15.944C416.939,263.456,405.902,269.506,405.902,269.506z"/>
</svg>
