<?xml version="1.0" encoding="utf-8"?>
<!-- Generator: Adobe Illustrator 16.0.0, SVG Export Plug-In . SVG Version: 6.00 Build 0)  -->
<!DOCTYPE svg PUBLIC "-//W3C//DTD SVG 1.1//EN" "http://www.w3.org/Graphics/SVG/1.1/DTD/svg11.dtd">
<svg version="1.1" id="Layer_1" xmlns="http://www.w3.org/2000/svg" xmlns:xlink="http://www.w3.org/1999/xlink" x="0px" y="0px"
	 width="512px" height="512px" viewBox="0 0 512 512" enable-background="new 0 0 512 512" xml:space="preserve">
<path fill="#3C3C3C" d="M255.792,51.417c-113.563,0-205.625,92.062-205.625,205.626c0,113.562,92.062,205.625,205.625,205.625
	c113.564,0,205.626-92.062,205.626-205.625C461.418,143.479,369.356,51.417,255.792,51.417z M350.917,291.033
	c-0.163,3.008-1.042,6.592-5.417,10.467c-20.17,17.439-43.775,28.691-69.355,36.369c-14.431,4.332-29.07,3.958-43.466-0.669
	c-24.222-7.787-47.746-18.046-66.677-34.95c-4.268-3.811-5.802-12.426-6.535-18.175c-1.305-10.229-0.367-32.865-0.367-32.865
	l97.149,32.274l94.967-32.061C351.214,251.424,351.615,278.13,350.917,291.033z M392.316,316.391
	c-0.308,2.531-3.396,4.006-6.288,4.219l0.588,9.517c2.278,10.011,6.416,30.858,6.416,30.858c0.588,2.067-10.378,3.815-10.378,3.815
	c0.231-6.985,0.419-15.163,0.267-15.009c-0.292,0.295-1.99,14.956-2.116,14.951c-4.142-0.151-7.304-1.227-8.354-3.758
	c0,0,3.91-20.785,6.186-30.775l1.026-9.754c-3.221-0.152-6.902-1.842-6.979-4.294c-0.074-2.454,2.914-4.066,6.826-4.449
	c0-18.724-0.077-58.922-0.077-80.523c-22.544,7.477-43.946,14.586-65.357,21.67c-17.732,5.868-58.08,18.3-58.08,18.3L92.528,217.523
	l163.264-47.033l164.174,47.053l-33.479,12.1l-0.307,82.298C388.33,312.02,392.624,313.859,392.316,316.391z"/>
</svg>
