<?xml version="1.0" encoding="utf-8"?>
<!-- Generator: Adobe Illustrator 16.0.0, SVG Export Plug-In . SVG Version: 6.00 Build 0)  -->
<!DOCTYPE svg PUBLIC "-//W3C//DTD SVG 1.1//EN" "http://www.w3.org/Graphics/SVG/1.1/DTD/svg11.dtd">
<svg version="1.1" id="Layer_1" xmlns="http://www.w3.org/2000/svg" xmlns:xlink="http://www.w3.org/1999/xlink" x="0px" y="0px"
	 width="512px" height="512px" viewBox="0 0 512 512" enable-background="new 0 0 512 512" xml:space="preserve">
<path fill-rule="evenodd" clip-rule="evenodd" fill="#3C3C3C" d="M255.792,51.417c-113.563,0-205.626,92.063-205.626,205.625
	c0,113.563,92.062,205.624,205.626,205.624c113.564,0,205.625-92.061,205.625-205.624C461.418,143.48,369.356,51.417,255.792,51.417
	z M297.14,179.968c2.147-4.212,4.411-8.374,6.819-12.44c0.456-0.759,1.921-1.499,2.691-1.314c0.682,0.162,1.403,1.594,1.504,2.529
	c0.374,3.719,0.481,7.465,0.74,11.198c0.155,2.194-0.79,2.757-2.93,2.56c-2.661-0.245-5.355-0.058-8.698-0.058
	C297.208,181.786,296.773,180.674,297.14,179.968z M296.184,182.438c0.45,1.517,0.732,2.461,1.099,3.713
	c1.18-0.87,2.293-1.685,3.67-2.703c0.501,1.781,0.906,3.247,1.453,5.217c0.605-2.026,1.045-3.503,1.778-5.947
	c0.956,1.943,1.46,2.976,2.108,4.283c0.756-1.061,1.453-2.04,2.776-3.913c0.416,8.836,0.801,16.667,1.125,24.5
	c0.124,3.004,0.163,6.012,0.127,9.022c-0.021,2.265,0.883,4.966-2.274,6.053c-3.088,1.068-5.644,0.399-7.494-2.708
	c-5.746,3.154-8.714,2.42-11.641-2.331c-1.805,0.29-3.628,1.126-5.097,0.717c-4.207-1.189-4.966-2.495-3.111-6.015
	c4.604-8.746,8.938-17.637,13.391-26.461C294.595,184.881,295.242,183.972,296.184,182.438z M288.384,221.72
	c3.682,0.705,6.622,1.268,9.989,1.912c-0.517,2.061-1.141,4.93-1.944,7.75c-4.935,17.221-9.919,34.432-14.854,51.654
	c-0.613,2.155-1.62,3.475-4.107,3.593c-2.69,0.128-5.37,0.648-8.967,1.118C275.317,265.115,281.902,243.256,288.384,221.72z
	 M267.247,287.746c3.906-23.541,5.498-44.663,11.883-68.914c3.188,1.039,5.017,1.906,8.05,2.888L267.247,287.746z M300.22,223.406
	c3.357,0.488,5.969,0.866,9.072,1.319c-0.652,3.516-1.185,7.56-2.163,11.495c-3.671,14.828-9.077,29.654-13.001,44.406
	c-0.34,1.283-1.997,2.706-3.339,3.122c-2.945,0.922-4.434,1.219-8.582,1.971L300.22,223.406z M278.042,115.757
	c-1.811,4.362-3.373,8.11-4.927,11.857c0.25,0.102,0.502,0.199,0.756,0.297c1.642-3.479,3.277-6.963,4.911-10.446
	c0.15,0.051,0.309,0.105,0.464,0.155c-1.558,5.899-3.115,11.794-4.677,17.693c0.219,0.056,0.442,0.111,0.667,0.169
	c1.954-6.09,3.602-12.295,5.96-18.221c2.329-5.848,5.391-11.41,8.131-17.097c0.49,0.166,0.983,0.33,1.474,0.495
	c-0.132,0.845-0.119,1.745-0.412,2.53c-4.308,11.504-3.42,22.803,0.875,34.136c1.272,3.353,1.697,7.05,2.264,10.628
	c1.151,7.358-2.83,12.397-7.958,16.836c-0.312,0.27-0.868,0.262-1.731,0.505c0.536-2.088,0.976-3.823,1.411-5.558
	c-0.119-0.038-0.235-0.081-0.354-0.125c-1.496,2.711-2.992,5.421-4.496,8.135c-0.394-0.154-0.786-0.304-1.176-0.455
	c0.112-1.367,0.216-2.732,0.328-4.097c-0.12-0.05-0.255-0.1-0.378-0.152c-0.609,1.375-1.223,2.745-1.967,4.418
	c-3.728-2.303-2.556-6.168-3.913-9.293c0,2.18,0,4.357,0,6.601C266.284,158.145,265.645,128.633,278.042,115.757z M266.685,201.515
	c2.074-10.942,3.995-21.911,5.945-32.723c2.945,0.691,5.425,1.275,8.455,1.995c-0.817,5.888-1.657,12.176-2.579,18.449
	c-0.672,4.587-1.612,9.138-2.09,13.741c-0.374,3.506-2.44,3.668-5.001,3.107C268.971,205.545,265.89,205.687,266.685,201.515z
	 M254.412,271.067c3.752-20.333,7.214-40.722,10.8-61.094c0.185-1.082,0.532-2.137,0.859-3.389c3.1,0.667,5.988,1.286,9.385,2.012
	c-0.918,6.238-1.793,12.396-2.734,18.547c-2.972,19.446-6.1,38.87-8.863,58.355c-0.551,3.921-3.03,3.084-5.317,3.539
	c-2.702,0.524-3.064-1.279-3.639-3.165C253.421,280.961,253.484,276.134,254.412,271.067z M253.845,288.707
	c-0.667,0.277-0.894,0.427-1.122,0.446c-7.452,0.517-7.541,0.429-9.391-6.716c-5.028-19.382-10.074-38.743-15.302-58.844
	c3.905,1.916,6.785,1.503,8.959-2.857C242.757,243.989,248.309,266.384,253.845,288.707z M226.075,261.737
	c-3.201-11.063-5.868-22.298-8.679-33.479c-0.116-0.463-0.44-1.572-0.67-2.772c3.597,1.925,7.36,0.763,10.055-0.939
	c5.655,21.396,11.276,42.669,16.914,63.974c-6.354,1.021-7.557,0.774-9.743-4.534C230.956,276.721,228.26,269.286,226.075,261.737z
	 M233.806,288.745c-6.266-0.864-11.585-1.503-16.884-2.386c-1.033-0.178-2.437-1.088-2.788-2.01
	c-4.915-12.588-9.684-25.241-14.466-37.888c-0.082-0.2,0.047-0.477,0.12-1.137c4.583-0.108,9.18-0.689,12.161-5.771
	C219.262,256.012,226.341,271.943,233.806,288.745z M217.686,189.817c-0.521,0.181-1.025,0.36-1.542,0.542
	c-1.543-4.391-3.085-8.785-4.627-13.178C213.938,181.268,217.096,185.086,217.686,189.817z M209.597,193.194
	c0.377-0.04,0.759-0.086,1.133-0.127c0.593,0.838,1.18,1.675,1.939,2.743c0.429-1.175,0.748-2.051,1.219-3.32
	c1.036,0.773,1.861,1.382,2.918,2.167c0.424-1.424,0.787-2.656,1.148-3.886c0.548-0.455,1.088-0.908,1.628-1.354
	c0.39,1.087,0.59,2.286,1.187,3.242c4.732,7.537,9.604,14.986,14.254,22.575c0.764,1.25,1.083,3.134,0.81,4.573
	c-0.632,3.303-4.098,4.316-6.651,2.146c-0.74-0.632-1.346-1.442-2.058-2.221c-2.155,5.664-3.829,6.408-9.82,4.5l0.008,0.012
	c-0.585-0.781-1.172-1.565-2.229-2.969c-0.909,1.193-1.473,2.419-2.421,3.065c-1.95,1.331-4.553,0.366-4.483-1.687
	C208.537,212.827,209.104,203.015,209.597,193.194z M200.293,219.674c3.259,5.353,6.64,10.635,9.704,16.098
	c0.563,0.995,0.424,3.343-0.304,3.943c-1.952,1.59-4.281,3.063-6.687,3.659c-2.949,0.736-5.151-0.43-5.945-4
	c-1.726-7.702-3.937-15.298-5.768-22.977c-0.409-1.699-0.058-3.574-0.058-5.68c-0.274,0.025-1.333,0.122-2.772,0.253
	c2.819-2.159,5.267-4.041,7.72-5.922C192.319,211.442,197.579,215.209,200.293,219.674z M171.834,219.668
	c1.64,0,3.761-0.519,4.171,0.096c1.271,1.907,2.204,4.199,2.561,6.452c0.099,0.661-2.162,1.694-3.667,2.803
	C173.757,225.534,172.918,222.98,171.834,219.668z M173.305,228.77c-1.828,0.736-2.875,1.15-3.924,1.569
	c-0.875-2.47-1.982-4.893-2.414-7.447c-0.085-0.511,2.421-1.49,3.736-2.26C171.502,223.135,172.302,225.639,173.305,228.77z
	 M177.401,217.983c1.739-0.21,4-0.931,4.309-0.437c1.187,1.923,2.111,4.195,2.381,6.427c0.091,0.761-2.047,1.793-3.5,2.976
	C179.416,223.644,178.516,221.118,177.401,217.983z M183.27,227.831c0.341,2.716,1.454,5.328,0.635,6.988
	c-0.659,1.328-4.167,2.566-5.491,1.93c-1.802-0.866-2.73-3.553-4.389-5.976C177.436,229.687,179.968,228.881,183.27,227.831z
	 M183.125,215.836c4.051-0.494,4.217,2.697,5.173,4.766c0.421,0.919-0.016,2.236-0.061,3.372c-0.441,0.016-0.887,0.033-1.329,0.048
	C185.697,221.397,184.487,218.774,183.125,215.836z M155.197,159.92c0.407-0.243,0.811-0.483,1.214-0.725
	c0.712,1.054,1.423,2.109,2.135,3.171c2.959,4.418,7.267,6.855,12.296,8.039c10.177,2.4,17.546,8.245,22.195,17.595
	c2.082,4.185,2.362,8.517,1.61,14.007c-1.349-2.576-2.274-4.341-3.57-6.8c0.498,4.136,0.883,7.42,1.277,10.703
	c-0.366,0.112-0.74,0.227-1.111,0.343c-0.732-0.632-1.468-1.266-2.338-2.009c0,0.783,0,1.375,0,2.562
	c-1.952-1.305-3.688-2.46-5.42-3.617c-0.16,0.204-0.307,0.409-0.463,0.611c1.42,1.288,2.844,2.58,4.259,3.867
	c-12.536,5.099-31.41-19.595-29.57-38.234c2.725,3.535,5.625,7.302,8.53,11.076c0.131-0.102,0.266-0.208,0.397-0.308
	C162.829,173.439,159.008,166.679,155.197,159.92z M165.014,230.458c-1.254-2.24-2.655-4.58-1.537-7.204
	c0.34-0.027,0.681-0.054,1.021-0.083c1.021,2.595,2.041,5.188,3.392,8.621C166.52,231.19,165.349,231.057,165.014,230.458z
	 M169.838,245.554c3.145-3.508,6.42-6.844,11.694-7.445c2.659-0.301,5.149-2.084,7.089-2.925c2.114,0.382,3.819,0.182,4.459,0.914
	c1.294,1.469,2.256,3.375,2.794,5.261c0.155,0.54-1.449,2.024-2.493,2.396c-6.801,2.451-13.658,4.78-20.555,6.968
	c-0.981,0.309-3.163-0.179-3.271-0.652C169.217,248.623,169.015,246.466,169.838,245.554z M174.189,262.165
	c-1.323-2.68-2.28-5.548-3.59-8.896c8.608-2.991,17.065-5.932,25.831-8.979c1.423,3.812,2.756,7.389,4.303,11.522
	c-8.197,2.752-15.978,5.424-23.831,7.888C176.193,263.92,174.583,262.972,174.189,262.165z M201.442,257.229
	c2.845,7.601,5.625,15.016,8.405,22.437c-5.637,2.846-10.833,3.49-16.236,0.849c-3.252-1.604-6.554-3.135-9.917-4.483
	c-4.52-1.812-6.896-5.144-7.718-10.635C184.363,262.709,192.651,260.049,201.442,257.229z M320.153,308.173
	c-5.494,29.733-9.401,51.193-17.886,95.438c-6.374,46.752-97.193,42.526-102.837-0.909c-13.271-71.258-14.814-79.435-22.252-119.146
	c-0.243-1.33-0.316-2.688-0.551-4.758c3.962,2.26,7.361,4.249,10.807,6.157c10.404,5.756,21.882,7.815,33.422,9.688
	c29.973,4.858,59.282,1.547,88.132-7.155c5.248-1.573,10.252-3.956,16.089-6.25C323.399,290.457,321.787,299.312,320.153,308.173z
	 M337.483,229.253c-4.229,13.914-8.59,27.793-12.719,41.742c-0.791,2.656-2.025,4.453-4.682,5.277
	c-7.041,2.167-14.061,4.361-22.037,6.84c0.285-2.656,0.23-4.36,0.662-5.93c2.548-9.435,5.017-18.903,7.881-28.24
	c4.588-14.98,9.462-29.872,14.227-44.8c0.297-0.946,0.698-1.856,0.872-2.296c7.464,2.194,14.477,4.255,21.976,6.454
	C341.716,214.928,339.649,222.109,337.483,229.253z M346.224,190.325c-0.224,1.989-0.598,3.963-0.861,5.957
	c-1.187,9.471-1.183,9.477-10.679,7.928c-0.976-0.162-1.962-0.408-2.915-0.723c-10.101-3.379-10.617-4.638-6.234-14.21
	c2.714-5.922,5.244-11.921,7.889-17.883c0.485-1.102,1.06-2.175,1.434-2.921c4.535,1.309,8.698,2.502,13.33,3.833
	C347.554,178.164,346.909,184.246,346.224,190.325z M350.41,169.15c-1.198,0.271-2.402,0.518-4.078,0.883
	c0.535-1.437,0.886-2.373,1.28-3.453c-2.018,0.926-3.85,1.771-6.192,2.846c0.894-2.876,1.573-5.068,2.243-7.264
	c-0.2-0.097-0.397-0.193-0.604-0.291c-0.945,1.764-1.896,3.525-2.843,5.286c-0.469-0.023-0.933-0.041-1.398-0.063
	c-0.656-3.287-1.312-6.572-1.971-9.865c-0.238,0.004-0.482,0.008-0.725,0.01c0.323,3.26,0.637,6.518,0.972,9.881
	c-3.76-2.163-6.061-5.353-7.352-9.514c-2.78-9.06-1.289-17.666,2.655-25.955c4.172-8.771,9.793-16.341,19.845-21.231
	c-4.854,6.648-8.421,12.865-8.672,20.42c3.647-12.644,10.571-22.542,22.956-28.326c-2.495,4.434-4.967,8.621-7.252,12.909
	c-3.462,6.469-3.575,13.13-1.161,20.027c1.148,3.268,1.688,6.751,2.645,10.753c1.181-3.223,0.443-5.907-0.247-8.696
	c-1.036-4.224-2.081-8.49-2.535-12.8c-0.232-2.172,0.832-4.483,1.26-6.519c2.464,7.183,5.235,14.105,7.201,21.253
	C369.854,151.806,361.973,166.486,350.41,169.15z"/>
</svg>
