<?xml version="1.0" encoding="utf-8"?>
<!-- Generator: Adobe Illustrator 16.0.0, SVG Export Plug-In . SVG Version: 6.00 Build 0)  -->
<!DOCTYPE svg PUBLIC "-//W3C//DTD SVG 1.1//EN" "http://www.w3.org/Graphics/SVG/1.1/DTD/svg11.dtd">
<svg version="1.1" id="Layer_1" xmlns="http://www.w3.org/2000/svg" xmlns:xlink="http://www.w3.org/1999/xlink" x="0px" y="0px"
	 width="200px" height="200px" viewBox="0 0 200 200" enable-background="new 0 0 200 200" xml:space="preserve">
<g>
	<path fill="#7F7F7F" d="M0,193C0,131,0,69,0,7c1.36-3.307,3.837-5.497,7-7c62,0,124,0,186,0c3.16,1.506,5.645,3.689,7,7
		c0,62,0,124,0,186c-1.353,3.314-3.844,5.489-7,7c-62,0-124,0-186,0C3.84,198.493,1.354,196.312,0,193z M82.047,111.678
		c-2.643,1.229-5.156,0.986-7.577,1.258c-10.016,1.124-19.778,3.087-28.203,9.078c-16.159,11.491-14.513,31.532,3.325,40.13
		c9.111,4.391,18.883,5.245,28.793,4.487c12.583-0.963,24.299-4.353,33.368-13.807c11.268-11.748,10.963-27.388-0.833-38.56
		c-3.856-3.653-8.228-6.761-12.333-10.155c-5.795-4.79-6.055-9.412-0.674-14.737c2.361-2.337,5.105-4.283,7.513-6.576
		c11.4-10.859,11.682-27.516,0.779-38.854c-0.961-0.999-2.582-1.543-2.762-3.865c7.436,1.31,13.408-1.395,19.37-6.997
		c-17.013,0.502-33.125-1.012-49.163,1.086c-6.154,0.806-11.938,2.957-17.124,6.519c-9.4,6.455-14.246,19.062-11.827,30.864
		c2.361,11.522,10.646,19.401,22.61,21.807c3.708,0.745,7.483,0.277,11.56,0.685C75.894,100.867,78.015,106.437,82.047,111.678z
		 M141.345,109.61c0,1.496,0.165,3.014-0.032,4.483c-0.488,3.638,0.771,4.808,4.607,4.877c4.115,0.075,4.529-1.636,4.501-4.993
		c-0.036-4.103-1.849-9.403,0.807-12.013c2.642-2.599,7.922-0.721,12.036-0.778c2.905-0.041,4.912,0.08,4.888-4.02
		c-0.023-3.832-1.171-4.98-4.797-4.619c-2.634,0.262-5.335-0.157-7.97,0.098c-3.774,0.366-5.529-0.755-5.112-4.88
		c0.333-3.29,0.099-6.644,0.022-9.967c-0.025-1.061,0.266-2.235-1.352-2.795c-4.576-1.584-7.579,0.371-7.598,5.148
		c-0.012,2.826-0.174,5.666,0.041,8.476c0.229,2.97-0.675,4.247-3.851,4.021c-3.474-0.245-6.981,0.04-10.469-0.075
		c-2.276-0.075-3.081,0.663-3.282,3.081c-0.348,4.17,0.67,6.358,5.319,5.507c1.286-0.236,2.653-0.036,3.983-0.036
		C141.343,101.126,141.343,101.126,141.345,109.61z"/>
	<path fill-rule="evenodd" clip-rule="evenodd" fill="#7F7F7F" d="M80.987,159.25c-5.431,0.146-11.283-0.963-16.929-3.183
		c-6.509-2.559-13.767-11.374-13.47-18.716c0.3-7.434,7.764-15.203,16.225-17.518c3.465-0.947,7.04-1.582,10.605-2.049
		c4.076-0.533,8.539-2.029,12.197,0.36c6.515,4.257,13.401,8.405,17.075,15.717c3.855,7.676,0.614,16.928-7.232,21.494
		C93.946,158.564,87.875,159.334,80.987,159.25z"/>
	<path fill-rule="evenodd" clip-rule="evenodd" fill="#7F7F7F" d="M98.263,69.474c0.071,10.628-3.547,16.102-11.193,18.914
		c-6.77,2.491-14.092,0.38-19.101-5.974c-6.829-8.663-9.307-18.667-7.792-29.528c0.841-6.029,4.11-10.524,10.178-12.363
		c6.369-1.932,12.266-0.887,17.109,3.83C95.052,51.741,97.734,61.184,98.263,69.474z"/>
</g>
</svg>
