<?xml version="1.0" encoding="utf-8"?>
<!-- Generator: Adobe Illustrator 16.0.0, SVG Export Plug-In . SVG Version: 6.00 Build 0)  -->
<!DOCTYPE svg PUBLIC "-//W3C//DTD SVG 1.1//EN" "http://www.w3.org/Graphics/SVG/1.1/DTD/svg11.dtd">
<svg version="1.1" id="Layer_1" xmlns="http://www.w3.org/2000/svg" xmlns:xlink="http://www.w3.org/1999/xlink" x="0px" y="0px"
	 width="530.801px" height="530.324px" viewBox="0 0 530.801 530.324" enable-background="new 0 0 530.801 530.324"
	 xml:space="preserve">
<path fill="#7F7F7F" d="M0,495.069C0,341.548,0,188.027,0,34.505C0.334,33.737,0.816,33,0.98,32.197
	C4.265,16.144,13.947,6.128,29.622,1.739C31.746,1.145,33.877,0.579,36.005,0c153.021,0,306.042,0,459.064,0
	c0.925,0.327,1.825,0.804,2.777,0.958c19.65,3.185,32.941,18.648,32.943,38.535c0.015,150.443,0.014,300.885,0.001,451.327
	c-0.002,18.355-11.186,32.872-28.928,37.704c-2.26,0.615-4.529,1.201-6.794,1.801c-153.021,0-306.043,0-459.064,0
	c-1.049-0.338-2.076-0.779-3.149-0.998c-15.787-3.228-26.495-12.11-31.075-27.836C1.161,499.357,0.593,497.21,0,495.069z
	 M283.076,232.864c0-10.78-0.19-20.409,0.093-30.024c0.114-3.869-1.128-4.916-4.861-4.893c-22.376,0.138-44.754,0.138-67.13,0.001
	c-3.738-0.023-4.975,1.12-4.971,4.917c0.087,81.633,0.088,163.266-0.004,244.897c-0.004,3.834,1.224,4.849,4.965,4.822
	c23.251-0.158,46.504-0.077,69.756-0.081c5.231-0.001,5.218-0.011,5.24-5.396c0.172-43.496,0.16-86.993,0.69-130.485
	c0.101-8.257,1.663-16.672,3.777-24.69c3.522-13.363,11.615-23.383,25.425-27.074c6.286-1.681,13.075-2.328,19.596-2.126
	c18.496,0.571,29.451,8.986,33.856,27c2.406,9.841,3.514,20.219,3.605,30.368c0.383,42.625,0.189,85.257,0.106,127.885
	c-0.006,3.255,0.674,4.622,4.325,4.599c23.876-0.155,47.754-0.119,71.631-0.029c2.991,0.011,4.193-0.789,4.174-3.994
	c-0.333-53.243-0.385-106.49-0.95-159.73c-0.154-14.501-2.86-28.808-7.51-42.627c-7.438-22.115-21.054-38.647-43.259-47.273
	c-10.457-4.062-21.376-5.904-32.509-6.747c-20.008-1.516-39.123,1.334-56.763,11.48C300.32,210.586,290.655,219.952,283.076,232.864
	z M77.938,325.162c0,40.751-0.003,81.501,0.003,122.252c0.001,5.071,0.021,5.088,4.891,5.089c23.5,0.006,47,0.006,70.5,0
	c5.009-0.001,5.036-0.015,5.036-4.958c0.006-81.501,0.006-163.002-0.001-244.502c0-4.871-0.148-5.018-5.091-5.021
	c-23.25-0.014-46.5-0.011-69.75-0.003c-5.573,0.001-5.585,0.02-5.586,5.643C77.936,244.162,77.938,284.662,77.938,325.162z
	 M71.808,118.374c-0.049,25.671,20.774,46.588,46.358,46.565c25.376-0.021,46.299-20.913,46.325-46.256
	c0.026-25.467-20.668-46.176-46.205-46.236C92.698,72.388,71.857,92.981,71.808,118.374z"/>
</svg>
