<?xml version="1.0" encoding="utf-8"?>
<!-- Generator: Adobe Illustrator 16.0.0, SVG Export Plug-In . SVG Version: 6.00 Build 0)  -->
<!DOCTYPE svg PUBLIC "-//W3C//DTD SVG 1.1//EN" "http://www.w3.org/Graphics/SVG/1.1/DTD/svg11.dtd">
<svg version="1.1" id="Layer_1" xmlns="http://www.w3.org/2000/svg" xmlns:xlink="http://www.w3.org/1999/xlink" x="0px" y="0px"
	 width="439.879px" height="359.606px" viewBox="0 0 439.879 359.606" enable-background="new 0 0 439.879 359.606"
	 xml:space="preserve">
<path fill-rule="evenodd" clip-rule="evenodd" fill="#7F7F7F" d="M427.864,6.93c-7.149,21.093-19.788,36.769-37.27,48.967
	c16.934-1.332,32.74-6.458,49.284-13.036c-9.677,14.642-20.216,27.128-33.172,37.015c-8.455,6.452-11.739,13.034-11.936,24.104
	c-1.229,69.215-26.178,129.249-73.736,179.455c-38.553,40.7-86.238,64.504-141.587,72.884
	c-48.296,7.312-95.346,2.658-140.561-16.279C25.519,334.44,12.772,327.356,0,320.054c35.042,2.417,68.276-3.102,99.498-18.629
	c10.93-5.437,21.159-12.282,31.481-19.261c-19.065-2.127-36.387-7.646-51.463-19.079c-15.126-11.473-25.851-26.165-31.999-44.751
	c13.338,1.948,26.213,2.062,39.395-1.467c-44.567-13.572-68.603-42.902-71.844-90.464c13.287,6.454,25.776,10.861,40.854,11.092
	C32.766,120.148,19.442,98.49,16.778,70.949c-1.837-18.993,1.767-36.986,11.757-54.03c49.293,57.772,111.25,89.404,187.077,94.655
	c-4.691-23.904-1.919-45.915,10.017-66.402C255.158-5.509,324.04-15.394,366.63,24.958c2.651,2.512,4.809,3.507,8.68,2.612
	c16.659-3.852,32.43-9.869,47.442-17.979C424.158,8.832,425.587,8.114,427.864,6.93z"/>
</svg>
